# xmcd CD database file
#
# Track frame offsets:
#	150
#	22729
#	40296
#	69917
#	96937
#	130404
#	190520
#	225261
#
# Disc length: 3662 seconds
#
# Revision: 1
# Processed by: cddbd v1.5.2PL0 Copyright (c) Steve Scherf et al.
# Submitted via: CDex 1.51
#
DISCID=570e4c08
DTITLE=Louis Moholo - Stan Tracey - Khumbula
DYEAR=2004
DGENRE=Jazz
TTITLE0=Molo (Hello) Africa - Later Europe
TTITLE1=Links
TTITLE2=Landela (Follow)
TTITLE3=Shapes
TTITLE4=Plurality
TTITLE5=Musicale
TTITLE6=Very Urgent
TTITLE7=Goduka (Go Home)
EXTD=YEAR: 2004
EXTT0=
EXTT1=
EXTT2=
EXTT3=
EXTT4=
EXTT5=
EXTT6=
EXTT7=
PLAYORDER=
